<mxfile host="app.diagrams.net" modified="2022-01-21T09:54:55.603Z" agent="5.0 (Windows NT 10.0; Win64; x64) AppleWebKit/537.36 (KHTML, like Gecko) Chrome/96.0.4664.110 Safari/537.36 OPR/82.0.4227.58" etag="5wonPnqKcVivlmLD25N2" version="16.4.3" type="github">
  <diagram id="whEvTxyHaMatAWto9hM1" name="Page-1">
    <mxGraphModel dx="1382" dy="764" grid="1" gridSize="10" guides="1" tooltips="1" connect="1" arrows="1" fold="1" page="1" pageScale="1" pageWidth="827" pageHeight="1169" math="0" shadow="0">
      <root>
        <mxCell id="0" />
        <mxCell id="1" parent="0" />
        <mxCell id="Hxf5nVXhAbiI0xI40ilo-2" value="diveBar database - SQL&lt;br&gt;&lt;br&gt;guinness&lt;br&gt;fosters&lt;br&gt;heineken&lt;br&gt;crisps&lt;br&gt;peanuts&lt;br&gt;chips&lt;br&gt;pork scratchings" style="whiteSpace=wrap;html=1;aspect=fixed;" vertex="1" parent="1">
          <mxGeometry width="180" height="180" as="geometry" />
        </mxCell>
        <mxCell id="Hxf5nVXhAbiI0xI40ilo-3" value="" style="endArrow=none;html=1;rounded=0;" edge="1" parent="1" target="Hxf5nVXhAbiI0xI40ilo-4">
          <mxGeometry width="50" height="50" relative="1" as="geometry">
            <mxPoint x="180" y="100" as="sourcePoint" />
            <mxPoint x="560" y="100" as="targetPoint" />
          </mxGeometry>
        </mxCell>
        <mxCell id="Hxf5nVXhAbiI0xI40ilo-4" value="JDBC setup" style="whiteSpace=wrap;html=1;aspect=fixed;" vertex="1" parent="1">
          <mxGeometry x="540" y="30" width="140" height="140" as="geometry" />
        </mxCell>
        <mxCell id="Hxf5nVXhAbiI0xI40ilo-5" value="Food Manager&lt;br&gt;&lt;br&gt;Add items to DB&lt;br&gt;printAll()&lt;br&gt;print by ID / Name&lt;br&gt;Update items&lt;br&gt;delete items" style="whiteSpace=wrap;html=1;aspect=fixed;" vertex="1" parent="1">
          <mxGeometry x="10" y="320" width="230" height="230" as="geometry" />
        </mxCell>
        <mxCell id="Hxf5nVXhAbiI0xI40ilo-6" value="Drinks Manager&lt;br&gt;&lt;br&gt;Add items to DB&lt;br&gt;printAll()&lt;br&gt;print by ID / Name&lt;br&gt;Update items&lt;br&gt;delete items" style="whiteSpace=wrap;html=1;aspect=fixed;" vertex="1" parent="1">
          <mxGeometry x="470" y="320" width="230" height="230" as="geometry" />
        </mxCell>
      </root>
    </mxGraphModel>
  </diagram>
</mxfile>


